{"title":"Comedy Nights with Kapil - Shahid Kapoor &amp; Iliana D'Cruz - 8","uid":8909344,"size":1196122740,"categoryP":"video","categoryS":"tv_shows","magnet":"?xt=urn:btih:07e67a7f659783c05680c5dd5de876d240a76855&amp;dn=Comedy+Nights+with+Kapil+-+Shahid+Kapoor+%26amp%3B+Iliana+D%27Cruz+-+8&amp;tr=udp%3A%2F%2Ftracker.openbittorrent.com%3A80&amp;tr=udp%3A%2F%2Fopen.demonii.com%3A1337&amp;tr=udp%3A%2F%2Ftracker.coppersurfer.tk%3A6969&amp;tr=udp%3A%2F%2Fexodus.desync.com%3A6969","seeders":0,"leechers":1,"uploader":"Palash995","files":1,"time":1378980757,"description":"Today's show starts with Kapil entering as Bittoo's brother Sittoo, who was in jail for 5 years. Sitoo decides to take revenge from Bittoo's family as they were responsible for his imprisonment. Shahid Kapoor and Ileana D'Cruz also came in the show to promote their upcoming film Phata Poster Nikla Hero. Watch the complete show to know what happens next.\n\nRenowned, actor-comedian Kapil Sharma makes his debut as a TV show producer with his new show Comedy Nights With Kapil. He will be seen multiple roles of an actor, scriptwriter and producer in his production debut. Already famous for his amazing comic timing and his talent to dig humor out of any situation, he is ready present everyday life in a fresh ad unique way.\n\nMedia Info:-\n\nGeneral \nComplete name : Comedy Nights with Kapil - Shahid Kapoor &amp; Iliana D'Cruz - 8th September 2013 - HD 720P - By Palash.MP4 \nFormat : MPEG-4 \nFormat profile : Base Media / Version 2 \nCodec ID : mp42 \nFile size : 1.11 GiB \nDuration : 1h 5mn \nOverall bit rate mode : Variable \nOverall bit rate : 2 452 Kbps \nEncoded date : UTC 2013-09-07 21:20:43 \nTagged date : UTC 2013-09-07 21:20:43 \ngsst : 0 \ngstd : 3902530 \ngssd : BB64FFB4AHH1378698444939643  \n\nVideo \nID : 1 \nFormat : AVC \nFormat/Info : Advanced Video Codec \nFormat profile : &lt;a class=&quot;__cf_email__&quot; href=&quot;/cdn-cgi/l/email-protection&quot; data-cfemail=&quot;3e765759567e720d100f&quot;&gt;[email&amp;#160;protected]&lt;/a&gt;&lt;script cf-hash='f9e31' type=&quot;text/javascript&quot;&gt;\n/* &lt;![CDATA[ */!function(){try{var t=&quot;currentScript&quot;in document?document.currentScript:function(){for(var t=document.getElementsByTagName(&quot;script&quot;),e=t.length;e--;)if(t[e].getAttribute(&quot;cf-hash&quot;))return t[e]}();if(t&amp;&amp;t.previousSibling){var e,r,n,i,c=t.previousSibling,a=c.getAttribute(&quot;data-cfemail&quot;);if(a){for(e=&quot;&quot;,r=parseInt(a.substr(0,2),16),n=2;a.length-n;n+=2)i=parseInt(a.substr(n,2),16)^r,e+=String.fromCharCode(i);e=document.createTextNode(e),c.parentNode.replaceChild(e,c)}}}catch(u){}}();/* ]]&gt; */&lt;/script&gt; \nFormat settings, CABAC : Yes \nFormat settings, ReFrames : 1 frame \nFormat settings, GOP : M=1, N=60 \nCodec ID : avc1 \nCodec ID/Info : Advanced Video Coding \nDuration : 1h 5mn \nBit rate : 2 258 Kbps \nMaximum bit rate : 4 747 Kbps \nWidth : 1 280 pixels \nHeight : 720 pixels \nDisplay aspect ratio : 16:9 \nFrame rate mode : Constant \nFrame rate : 25.000 fps \nColor space : YUV \nChroma subsampling : 4:2:0 \nBit depth : 8 bits \nScan type : Progressive \nBits/(Pixel*Frame) : 0.098 \nStream size : 1.03 GiB (92%) \nTagged date : UTC 2013-09-07 21:26:36 \n\nAudio \nID : 2 \nFormat : AAC \nFormat/Info : Advanced Audio Codec \nFormat profile : LC \nCodec ID : 40 \nDuration : 1h 5mn \nBit rate mode : Variable \nBit rate : 192 Kbps \nMaximum bit rate : 201 Kbps \nChannel(s) : 2 channels \nChannel positions : Front: L R \nSampling rate : 44.1 KHz \nCompression mode : Lossy \nStream size : 89.3 MiB (8%) \nTitle : IsoMedia File Produced by Google, 5-11-2011 \nEncoded date : UTC 2013-09-07 21:24:17 \nTagged date : UTC 2013-09-07 21:26:36 \n\nScreenshots:-\n &lt;a href=&quot;\nhttps://yuq.me/users/26/528/t9VNn7xKRz.png&quot; rel=&quot;nofollow&quot; target=&quot;_NEW&quot;&gt;\nhttps://yuq.me/users/26/528/t9VNn7xKRz.png&lt;/a&gt;\n &lt;a href=&quot;\nhttps://yuq.me/users/26/528/FetSLapufz.png&quot; rel=&quot;nofollow&quot; target=&quot;_NEW&quot;&gt;\nhttps://yuq.me/users/26/528/FetSLapufz.png&lt;/a&gt;\n &lt;a href=&quot;\nhttps://yuq.me/users/26/528/VUNznGHA6g.png&quot; rel=&quot;nofollow&quot; target=&quot;_NEW&quot;&gt;\nhttps://yuq.me/users/26/528/VUNznGHA6g.png&lt;/a&gt;\n &lt;a href=&quot;\nhttps://yuq.me/users/26/528/XG9iNpfZcW.png&quot; rel=&quot;nofollow&quot; target=&quot;_NEW&quot;&gt;\nhttps://yuq.me/users/26/528/XG9iNpfZcW.png&lt;/a&gt;\n","torrent":{"xt":"urn:btih:07e67a7f659783c05680c5dd5de876d240a76855","amp;dn":"Comedy+Nights+with+Kapil+-+Shahid+Kapoor+%26amp%3B+Iliana+D%27Cruz+-+8","amp;tr":["udp%3A%2F%2Ftracker.openbittorrent.com%3A80","udp%3A%2F%2Fopen.demonii.com%3A1337","udp%3A%2F%2Ftracker.coppersurfer.tk%3A6969","udp%3A%2F%2Fexodus.desync.com%3A6969"],"infoHash":"07e67a7f659783c05680c5dd5de876d240a76855","infoHashBuffer":{"type":"Buffer","data":[7,230,122,127,101,151,131,192,86,128,197,221,93,232,118,210,64,167,104,85]},"announce":[],"urlList":[]}}